<?xml version="1.0" encoding="UTF-8" standalone="no"?>
<!-- Created with Inkscape (http://www.inkscape.org/) -->

<svg
   xmlns:dc="http://purl.org/dc/elements/1.1/"
   xmlns:cc="http://creativecommons.org/ns#"
   xmlns:rdf="http://www.w3.org/1999/02/22-rdf-syntax-ns#"
   xmlns:svg="http://www.w3.org/2000/svg"
   xmlns="http://www.w3.org/2000/svg"
   xmlns:sodipodi="http://sodipodi.sourceforge.net/DTD/sodipodi-0.dtd"
   xmlns:inkscape="http://www.inkscape.org/namespaces/inkscape"
   width="744.09448819"
   height="1052.3622047"
   id="svg2"
   version="1.1"
   inkscape:version="0.48.2 r9819"
   sodipodi:docname="New document 1">
  <defs
     id="defs4" />
  <sodipodi:namedview
     id="base"
     pagecolor="#ffffff"
     bordercolor="#666666"
     borderopacity="1.0"
     inkscape:pageopacity="0.0"
     inkscape:pageshadow="2"
     inkscape:zoom="0.33359375"
     inkscape:cx="654.80093"
     inkscape:cy="-407.08171"
     inkscape:document-units="px"
     inkscape:current-layer="layer1"
     showgrid="false"
     inkscape:window-width="1280"
     inkscape:window-height="657"
     inkscape:window-x="-8"
     inkscape:window-y="-8"
     inkscape:window-maximized="1" />
  <metadata
     id="metadata7">
    <rdf:RDF>
      <cc:Work
         rdf:about="">
        <dc:format>image/svg+xml</dc:format>
        <dc:type
           rdf:resource="http://purl.org/dc/dcmitype/StillImage" />
        <dc:title></dc:title>
      </cc:Work>
    </rdf:RDF>
  </metadata>
  <g
     inkscape:label="Layer 1"
     inkscape:groupmode="layer"
     id="layer1">
    <rect
       style="fill:#ffffff;stroke:none;stroke-width:0.69999999000000002;stroke-miterlimit:4;stroke-opacity:1;stroke-dasharray:none;fill-opacity:1"
       id="rect3087"
       width="800"
       height="800"
       x="-992.22485"
       y="135.07881"
       inkscape:export-filename="C:\Users\Christian\Dropbox\CLD\Orange House\Crossfit\app\www\assets\img\log.png"
       inkscape:export-xdpi="90"
       inkscape:export-ydpi="90" />
    <g
       id="g3054"
       transform="matrix(9.7389354,0,0,9.7389354,-871.46086,197.00737)"
       inkscape:export-filename="C:\Users\Christian\Dropbox\CLD\Orange House\Crossfit\app\www\assets\img\log.png"
       inkscape:export-xdpi="90"
       inkscape:export-ydpi="90">
      <path
         id="path2986"
         d="M 39.503,52 H 1.5 V 0.003 H 39.503 C 41.158,0.003 42.5,1.345 42.5,3 V 49.003 C 42.5,50.658 41.158,52 39.503,52 z"
         style="fill:#556080"
         inkscape:connector-curvature="0" />
      <rect
         id="rect2988"
         height="51.997002"
         width="5"
         style="fill:#d75a4a"
         y="0.003"
         x="31.5" />
      <g
         id="g2990">
	<rect
   id="rect2992"
   height="18"
   width="30"
   style="fill:#424a60"
   y="17.01"
   x="1.5" />

	<rect
   id="rect2994"
   height="18"
   width="6"
   style="fill:#424a60"
   y="17.01"
   x="36.5" />

</g>
      <polygon
         id="polygon2996"
         points="8.5,55 5.5,57 5.5,52 11.5,52 11.5,57 "
         style="fill:#ebba16" />
      <rect
         id="rect2998"
         height="4"
         width="4"
         style="fill:#e0e1e2"
         y="7"
         x="49.5" />
      <path
         id="path3000"
         d="M 53.5,0 H 51.485 C 51.211,0 50.95,0.056 50.712,0.156 50.593,0.206 50.48,0.267 50.375,0.339 49.847,0.696 49.5,1.3 49.5,1.985 V 7 h 4 V 0 z"
         style="fill:#d75a4a"
         inkscape:connector-curvature="0" />
      <path
         id="path3002"
         d="m 55.515,0 0,0 C 55.789,0 56.05,0.056 56.288,0.156 56.05,0.056 55.789,0 55.515,0 z"
         style="fill:#d75a4a"
         inkscape:connector-curvature="0" />
      <rect
         id="rect3004"
         height="38"
         width="4"
         style="fill:#db7b1b"
         y="11"
         x="53.5" />
      <rect
         id="rect3006"
         height="4"
         width="4"
         style="fill:#c4c4c4"
         y="7"
         x="53.5" />
      <path
         id="path3008"
         d="m 57.5,1.985 0,0 C 57.5,1.3 57.153,0.696 56.625,0.339 57.153,0.696 57.5,1.3 57.5,1.985 z"
         style="fill:#d75a4a"
         inkscape:connector-curvature="0" />
      <path
         id="path3010"
         d="M 57.5,7 V 1.985 C 57.5,1.3 57.153,0.696 56.625,0.339 56.52,0.268 56.406,0.206 56.288,0.156 56.05,0.056 55.789,0 55.515,0 H 53.5 v 7 h 4 z"
         style="fill:#b74c44"
         inkscape:connector-curvature="0" />
      <polygon
         id="polygon3012"
         points="57.5,49 49.5,49 53.5,56 "
         style="fill:#ebd6bd" />
      <path
         id="path3014"
         d="m 52.5,58 c 0,0.553 0.447,1 1,1 0.553,0 1,-0.447 1,-1 v -4 h -2 v 4 z"
         style="fill:#4c4c4c"
         inkscape:connector-curvature="0" />
      <rect
         id="rect3016"
         height="38"
         width="4"
         style="fill:#ed8a19"
         y="11"
         x="49.5" />
      <g
         id="g3018">
</g>
      <g
         id="g3020">
</g>
      <g
         id="g3022">
</g>
      <g
         id="g3024">
</g>
      <g
         id="g3026">
</g>
      <g
         id="g3028">
</g>
      <g
         id="g3030">
</g>
      <g
         id="g3032">
</g>
      <g
         id="g3034">
</g>
      <g
         id="g3036">
</g>
      <g
         id="g3038">
</g>
      <g
         id="g3040">
</g>
      <g
         id="g3042">
</g>
      <g
         id="g3044">
</g>
      <g
         id="g3046">
</g>
    </g>
    <text
       xml:space="preserve"
       style="font-size:40px;font-style:normal;font-weight:normal;line-height:125%;letter-spacing:0px;word-spacing:0px;fill:#000000;fill-opacity:1;stroke:none;font-family:Sans"
       x="-944.26233"
       y="851.51898"
       id="text3089"
       sodipodi:linespacing="125%"
       inkscape:export-filename="C:\Users\Christian\Dropbox\CLD\Orange House\Crossfit\app\www\assets\img\log.png"
       inkscape:export-xdpi="90"
       inkscape:export-ydpi="90"><tspan
         sodipodi:role="line"
         id="tspan3091"
         x="-944.26233"
         y="851.51898"
         style="font-size:90px;font-weight:bold;-inkscape-font-specification:Sans Bold">LOG WORKOUT</tspan></text>
    <rect
       style="fill:#ffffff;stroke:none;stroke-width:0.69999999000000002;stroke-miterlimit:4;stroke-opacity:1;stroke-dasharray:none;fill-opacity:1"
       id="rect3087-6"
       width="800"
       height="800"
       x="-996.534"
       y="994.09521"
       inkscape:export-filename="C:\Users\Christian\Dropbox\CLD\Orange House\Crossfit\app\www\assets\img\wod.png"
       inkscape:export-xdpi="90"
       inkscape:export-ydpi="90" />
    <text
       xml:space="preserve"
       style="font-size:40px;font-style:normal;font-weight:normal;text-align:center;line-height:125%;letter-spacing:0px;word-spacing:0px;text-anchor:middle;fill:#000000;fill-opacity:1;stroke:none;font-family:Sans"
       x="-596.41626"
       y="1662.5729"
       id="text3089-4"
       sodipodi:linespacing="125%"
       inkscape:export-filename="C:\Users\Christian\Dropbox\CLD\Orange House\Crossfit\app\www\assets\img\wod.png"
       inkscape:export-xdpi="90"
       inkscape:export-ydpi="90"><tspan
         sodipodi:role="line"
         id="tspan3091-5"
         x="-596.41626"
         y="1662.5729"
         style="font-size:90px;font-weight:bold;text-align:center;text-anchor:middle;-inkscape-font-specification:Sans Bold">WORKOUT OF</tspan><tspan
         sodipodi:role="line"
         x="-596.41626"
         y="1775.0729"
         style="font-size:90px;font-weight:bold;text-align:center;text-anchor:middle;-inkscape-font-specification:Sans Bold"
         id="tspan3213">THE DAY</tspan></text>
    <g
       id="g3262"
       transform="matrix(1.1099218,0,0,1.1099218,-890.51593,1009.1206)"
       inkscape:export-filename="C:\Users\Christian\Dropbox\CLD\Orange House\Crossfit\app\www\assets\img\wod.png"
       inkscape:export-xdpi="90"
       inkscape:export-ydpi="90">
      <path
         id="path3216"
         d="m 403.35,310.633 c -6.4,-5.333 -16,-17.067 -16,-17.067 -21.333,-29.867 -59.733,-48 -59.733,-48 V 228.5 c 0,-2.133 1.067,-3.2 3.2,-3.2 l 0,0 c 2.133,0 3.2,-2.133 3.2,-3.2 v -16 c 7.467,-23.467 34.133,-35.2 34.133,-35.2 0,0 6.4,-3.2 18.133,-3.2 11.733,0 18.133,-6.4 18.133,-6.4 5.333,-4.267 3.2,-10.667 3.2,-10.667 -2.133,-1.067 -2.133,-3.2 -2.133,-3.2 3.2,-2.133 2.133,-5.333 2.133,-5.333 -2.133,0 -2.133,-3.2 -2.133,-3.2 3.2,-3.2 1.067,-5.333 1.067,-5.333 -2.133,-5.333 -9.6,-4.267 -9.6,-4.267 1.067,-7.467 -5.333,-6.4 -5.333,-6.4 -3.2,0 -7.467,8.533 -7.467,8.533 -4.267,2.133 -9.6,12.8 -9.6,12.8 1.067,3.2 -1.067,7.467 -1.067,7.467 0,0 0,0 -5.333,2.133 -5.333,2.133 -10.667,1.067 -10.667,1.067 5.333,-21.333 3.2,-28.8 3.2,-28.8 -4.267,-19.2 -10.667,-34.133 -10.667,-34.133 0,-6.4 -4.267,-10.667 -4.267,-10.667 1.067,-4.267 4.267,-7.467 4.267,-7.467 2.133,1.067 13.867,0 13.867,0 6.4,0 6.4,-3.2 6.4,-3.2 -4.267,-4.267 -2.133,-8.533 -2.133,-8.533 2.133,-2.133 2.133,-5.333 2.133,-5.333 -1.067,-1.067 0,-3.2 0,-3.2 2.133,-2.133 1.067,-4.267 1.067,-4.267 v -2.133 c 6.4,0 5.333,-3.2 5.333,-3.2 L 368.15,32.234 C 367.084,9.833 347.884,1.3 347.884,1.3 c -21.333,-5.333 -38.4,7.467 -38.4,7.467 -10.667,10.667 -5.333,22.4 -5.333,22.4 7.467,17.067 9.6,24.533 9.6,24.533 v 5.333 c -13.867,4.267 -17.067,11.733 -17.067,11.733 -22.4,0 -29.867,11.733 -29.867,11.733 -32,5.333 -42.667,10.667 -59.733,16 -17.067,6.4 -5.333,18.133 -5.333,18.133 0,0 16,22.4 23.467,26.667 6.4,4.267 40.533,34.133 40.533,34.133 v 5.333 c -1.067,4.267 4.267,13.867 4.267,13.867 0,5.333 -7.467,9.6 -7.467,9.6 -16,16 -17.067,33.067 -17.067,33.067 v 18.133 c -8.533,6.4 -7.467,10.667 -7.467,10.667 l 5.333,9.6 c -6.4,11.733 -19.2,45.867 -19.2,45.867 0,0 -11.733,19.2 -25.6,25.6 -13.867,6.4 -25.6,39.467 -25.6,39.467 -3.2,11.733 -18.133,28.8 -18.133,28.8 L 133.484,442.9 c -11.733,-1.067 -16,1.067 -16,1.067 -13.867,-2.133 -5.333,16 -5.333,16 9.6,17.067 8.533,25.6 8.533,25.6 6.4,21.333 21.333,27.733 21.333,27.733 19.2,8.533 24.533,3.2 24.533,3.2 4.267,-6.4 -4.267,-10.667 -4.267,-10.667 -11.733,-8.533 -6.4,-36.267 -6.4,-36.267 9.6,-7.467 1.067,-12.8 1.067,-12.8 -4.267,-5.333 2.133,-9.6 2.133,-9.6 1.067,-3.2 43.733,-46.933 43.733,-46.933 3.2,-5.333 26.667,-28.8 26.667,-28.8 16,-13.867 36.267,-41.6 36.267,-41.6 17.067,-18.133 23.467,-33.067 23.467,-33.067 0,-3.2 9.6,-2.133 9.6,-2.133 3.2,2.133 12.8,1.067 12.8,1.067 l 46.933,23.467 c 8.533,3.2 3.2,7.467 3.2,7.467 -14.933,14.933 -19.2,24.533 -19.2,24.533 -11.733,17.067 -48,46.933 -48,46.933 -5.333,1.067 -32,16 -32,16 -14.933,3.2 -2.133,19.2 -2.133,19.2 0,0 12.8,13.867 16,19.2 3.2,5.333 13.867,17.067 13.867,17.067 18.133,16 27.733,16 37.333,13.867 10.667,-3.2 -2.133,-9.6 -2.133,-9.6 -7.467,-7.467 -8.533,-18.133 -12.8,-23.467 -4.267,-7.467 1.067,-17.067 1.067,-17.067 4.267,-3.2 1.067,-5.333 -1.067,-6.4 -11.733,-4.267 -3.2,-11.733 -3.2,-11.733 9.6,-9.6 45.867,-35.2 45.867,-35.2 21.333,-12.8 38.4,-33.067 38.4,-33.067 9.6,-5.333 12.8,-11.733 12.8,-11.733 8.533,-12.8 -3.201,-24.534 -3.201,-24.534 z M 272.15,135.7 c -5.333,6.4 -2.133,24.533 -2.133,24.533 0,0 -26.667,-19.2 -36.267,-38.4 v -6.4 c 0,0 24.533,0 38.4,-2.133 l 2.133,13.867 c 10e-4,-1.067 3.201,3.2 -2.133,8.533 z"
         style="fill:#ffd15c"
         inkscape:connector-curvature="0" />
      <path
         id="path3218"
         d="M 326.55,245.567 V 228.5 c 0,-2.133 1.067,-3.2 3.2,-3.2 l 0,0 c 2.133,0 3.2,-2.133 3.2,-3.2 v -16 c 1.067,-4.267 -64,-7.467 -64,-7.467 0,5.333 -7.467,9.6 -7.467,9.6 -16,16 -17.067,33.067 -17.067,33.067 v 18.133 c -8.533,6.4 -7.467,10.667 -7.467,10.667 l 5.333,9.6 c -4.267,8.533 -12.8,28.8 -16,39.467 h 48 c 10.667,-12.8 14.933,-22.4 14.933,-22.4 0,-3.2 9.6,-2.133 9.6,-2.133 3.2,2.133 12.8,1.067 12.8,1.067 l 46.933,23.467 c 7.467,2.133 29.867,-24.533 29.867,-24.533 -22.398,-32.002 -61.865,-49.068 -61.865,-49.068 z"
         style="fill:#40596b"
         inkscape:connector-curvature="0" />
      <g
         id="g3220">
	<path
   id="path3222"
   d="m 158.017,447.167 -21.333,-9.6 -4.267,5.333 c -11.733,-1.067 -16,1.067 -16,1.067 -13.867,-2.133 -5.333,16 -5.333,16 9.6,17.067 8.533,25.6 8.533,25.6 6.4,21.333 21.333,27.733 21.333,27.733 19.2,8.533 24.533,3.2 24.533,3.2 4.267,-6.4 -4.267,-10.667 -4.267,-10.667 -11.733,-8.533 -6.4,-36.267 -6.4,-36.267 9.6,-7.467 1.067,-12.8 1.067,-12.8 -4.266,-5.333 2.134,-9.599 2.134,-9.599 z"
   style="fill:#ff7058"
   inkscape:connector-curvature="0" />

	<path
   id="path3224"
   d="m 324.417,473.833 c -7.467,-7.467 -8.533,-18.133 -12.8,-23.467 -4.267,-7.467 1.067,-17.067 1.067,-17.067 4.267,-3.2 1.067,-5.333 -1.067,-6.4 -11.733,-4.267 -3.2,-11.733 -3.2,-11.733 l -16,-18.133 c -5.333,1.067 -32,16 -32,16 -14.933,3.2 -2.133,19.2 -2.133,19.2 0,0 12.8,13.867 16,19.2 3.2,5.333 13.867,17.067 13.867,17.067 18.133,16 27.733,16 37.333,13.867 11.733,-2.134 -1.067,-8.534 -1.067,-8.534 z"
   style="fill:#ff7058"
   inkscape:connector-curvature="0" />

</g>
      <g
         id="g3226">
</g>
      <g
         id="g3228">
</g>
      <g
         id="g3230">
</g>
      <g
         id="g3232">
</g>
      <g
         id="g3234">
</g>
      <g
         id="g3236">
</g>
      <g
         id="g3238">
</g>
      <g
         id="g3240">
</g>
      <g
         id="g3242">
</g>
      <g
         id="g3244">
</g>
      <g
         id="g3246">
</g>
      <g
         id="g3248">
</g>
      <g
         id="g3250">
</g>
      <g
         id="g3252">
</g>
      <g
         id="g3254">
</g>
    </g>
    <rect
       style="fill:#ffffff;stroke:none;stroke-width:0.69999999000000002;stroke-miterlimit:4;stroke-opacity:1;stroke-dasharray:none;fill-opacity:1"
       id="rect3087-6-7"
       width="800"
       height="800"
       x="-16.299709"
       y="1105.0085"
       inkscape:export-filename="C:\Users\Christian\Dropbox\CLD\Orange House\Crossfit\app\www\assets\img\stopwatch.png"
       inkscape:export-xdpi="90"
       inkscape:export-ydpi="90" />
    <text
       xml:space="preserve"
       style="font-size:40px;font-style:normal;font-weight:normal;text-align:center;line-height:125%;letter-spacing:0px;word-spacing:0px;text-anchor:middle;fill:#000000;fill-opacity:1;stroke:none;font-family:Sans"
       x="383.81796"
       y="1825.4862"
       id="text3089-4-9"
       sodipodi:linespacing="125%"
       inkscape:export-filename="C:\Users\Christian\Dropbox\CLD\Orange House\Crossfit\app\www\assets\img\stopwatch.png"
       inkscape:export-xdpi="90"
       inkscape:export-ydpi="90"><tspan
         sodipodi:role="line"
         x="383.81796"
         y="1825.4862"
         style="font-size:90px;font-weight:bold;text-align:center;text-anchor:middle;-inkscape-font-specification:Sans Bold"
         id="tspan3213-3">STOPWATCH</tspan></text>
    <g
       id="g3429"
       transform="matrix(9.2935207,0,0,9.2935207,107.89226,1148.2638)"
       inkscape:export-filename="C:\Users\Christian\Dropbox\CLD\Orange House\Crossfit\app\www\assets\img\stopwatch.png"
       inkscape:export-xdpi="90"
       inkscape:export-ydpi="90">
      <g
         id="g3377">
	<g
   id="g3379">
		<circle
   id="circle3381"
   r="29"
   cy="29"
   cx="30"
   style="fill:#3c97d3"
   sodipodi:cx="30"
   sodipodi:cy="29"
   sodipodi:rx="29"
   sodipodi:ry="29"
   d="M 59,29 C 59,45.016258 46.016258,58 30,58 13.983742,58 1,45.016258 1,29 1,12.983742 13.983742,0 30,0 46.016258,0 59,12.983742 59,29 z" />

		<path
   id="path3383"
   d="M 30,60 C 13.458,60 0,46.542 0,30 0,22.007 3.107,14.486 8.749,8.824 9.528,8.039 10.796,8.039 11.577,8.818 c 0.783,0.78 0.785,2.046 0.006,2.828 C 6.693,16.555 4,23.072 4,30 4,44.337 15.663,56 30,56 44.337,56 56,44.337 56,30 56,16.337 45.405,5.101 32,4.076 v 10.757 c 0,1.104 -0.896,2 -2,2 -1.104,0 -2,-0.896 -2,-2 V 2 C 28,0.896 28.896,0 30,0 46.542,0 60,13.458 60,30 60,46.542 46.542,60 30,60 z"
   style="fill:#b1d3ef"
   inkscape:connector-curvature="0" />

		<path
   id="path3385"
   d="m 20,20.121 0,0 12.944,9.363 c 1.274,0.926 1.419,2.772 0.305,3.886 l 0,0 c -1.114,1.114 -2.959,0.969 -3.886,-0.305 L 20,20.121 z"
   style="fill:#b1d3ef"
   inkscape:connector-curvature="0" />

	</g>

	<g
   id="g3387">
		<circle
   id="circle3389"
   r="12"
   cy="47.980999"
   cx="48"
   style="fill:#26b999"
   sodipodi:cx="48"
   sodipodi:cy="47.980999"
   sodipodi:rx="12"
   sodipodi:ry="12"
   d="m 60,47.980999 c 0,6.627417 -5.372583,12 -12,12 -6.627417,0 -12,-5.372583 -12,-12 0,-6.627417 5.372583,-12 12,-12 6.627417,0 12,5.372583 12,12 z" />

		<path
   id="path3391"
   d="m 54.571,42.161 c -0.455,-0.316 -1.077,-0.204 -1.392,0.25 l -5.596,8.04 -3.949,-3.242 c -0.426,-0.351 -1.057,-0.288 -1.407,0.139 -0.351,0.427 -0.289,1.057 0.139,1.407 l 4.786,3.929 c 0.18,0.147 0.404,0.227 0.634,0.227 0.045,0 0.091,-0.003 0.137,-0.009 0.276,-0.039 0.524,-0.19 0.684,-0.419 l 6.214,-8.929 c 0.315,-0.454 0.203,-1.078 -0.25,-1.393 z"
   style="fill:#ffffff"
   inkscape:connector-curvature="0" />

	</g>

</g>
      <g
         id="g3393">
</g>
      <g
         id="g3395">
</g>
      <g
         id="g3397">
</g>
      <g
         id="g3399">
</g>
      <g
         id="g3401">
</g>
      <g
         id="g3403">
</g>
      <g
         id="g3405">
</g>
      <g
         id="g3407">
</g>
      <g
         id="g3409">
</g>
      <g
         id="g3411">
</g>
      <g
         id="g3413">
</g>
      <g
         id="g3415">
</g>
      <g
         id="g3417">
</g>
      <g
         id="g3419">
</g>
      <g
         id="g3421">
</g>
    </g>
    <rect
       style="fill:#ffffff;stroke:none;stroke-width:0.69999999000000002;stroke-miterlimit:4;stroke-opacity:1;stroke-dasharray:none;fill-opacity:1"
       id="rect3087-6-7-0"
       width="800"
       height="800"
       x="903.98126"
       y="1075.032"
       inkscape:export-filename="C:\Users\Christian\Dropbox\CLD\Orange House\Crossfit\app\www\assets\img\hiit.png"
       inkscape:export-xdpi="90"
       inkscape:export-ydpi="90" />
    <text
       xml:space="preserve"
       style="font-size:40px;font-style:normal;font-weight:normal;text-align:center;line-height:125%;letter-spacing:0px;word-spacing:0px;text-anchor:middle;fill:#000000;fill-opacity:1;stroke:none;font-family:Sans"
       x="1304.099"
       y="1795.5096"
       id="text3089-4-9-4"
       sodipodi:linespacing="125%"
       inkscape:export-filename="C:\Users\Christian\Dropbox\CLD\Orange House\Crossfit\app\www\assets\img\hiit.png"
       inkscape:export-xdpi="90"
       inkscape:export-ydpi="90"><tspan
         sodipodi:role="line"
         x="1304.099"
         y="1795.5096"
         style="font-size:90px;font-weight:bold;text-align:center;text-anchor:middle;-inkscape-font-specification:Sans Bold"
         id="tspan3213-3-8">INTERVAL TIMER</tspan></text>
    <g
       id="g3595"
       transform="matrix(9.166034,0,0,9.166034,1043.1499,1140.2708)"
       inkscape:export-filename="C:\Users\Christian\Dropbox\CLD\Orange House\Crossfit\app\www\assets\img\hiit.png"
       inkscape:export-xdpi="90"
       inkscape:export-ydpi="90">
      <circle
         id="circle3551"
         r="29"
         cy="29"
         cx="29"
         style="fill:#48a0dc"
         sodipodi:cx="29"
         sodipodi:cy="29"
         sodipodi:rx="29"
         sodipodi:ry="29"
         d="M 58,29 C 58,45.016258 45.016258,58 29,58 12.983742,58 0,45.016258 0,29 0,12.983742 12.983742,0 29,0 45.016258,0 58,12.983742 58,29 z" />
      <path
         id="path3553"
         d="m 0,29 c 0,0.295 0.013,0.586 0.022,0.879 H 29 V 0 C 12.984,0 0,12.984 0,29 z"
         style="fill:#efce4a"
         inkscape:connector-curvature="0" />
      <path
         id="path3555"
         d="m 29,6.879 c -0.552,0 -1,0.447 -1,1 v 23 H 13 c -0.552,0 -1,0.447 -1,1 0,0.553 0.448,1 1,1 h 16 c 0.552,0 1,-0.447 1,-1 v -24 c 0,-0.553 -0.448,-1 -1,-1 z"
         style="fill:#4393bf"
         inkscape:connector-curvature="0" />
      <path
         id="path3557"
         d="M 29,5 C 28.448,5 28,5.447 28,6 V 29 H 13 c -0.552,0 -1,0.447 -1,1 0,0.553 0.448,1 1,1 h 16 c 0.552,0 1,-0.447 1,-1 V 6 C 30,5.447 29.552,5 29,5 z"
         style="fill:#424a60"
         inkscape:connector-curvature="0" />
      <g
         id="g3559">
</g>
      <g
         id="g3561">
</g>
      <g
         id="g3563">
</g>
      <g
         id="g3565">
</g>
      <g
         id="g3567">
</g>
      <g
         id="g3569">
</g>
      <g
         id="g3571">
</g>
      <g
         id="g3573">
</g>
      <g
         id="g3575">
</g>
      <g
         id="g3577">
</g>
      <g
         id="g3579">
</g>
      <g
         id="g3581">
</g>
      <g
         id="g3583">
</g>
      <g
         id="g3585">
</g>
      <g
         id="g3587">
</g>
    </g>
  </g>
</svg>
